<svg width="50" height="48" fill="none" xmlns="http://www.w3.org/2000/svg"><path d="M15.283 12.8L11.458 0H1.533C.687 0 0 .717 0 1.6c0 .883.687 1.6 1.533 1.6h7.665l3.082 9.6h-.016L15.33 32c0 3.534 2.746 6.4 6.132 6.4h16.863c3.387 0 6.133-2.866 6.133-6.4l4.599-19.2H15.283zM41.392 32c0 1.766-1.374 3.2-3.067 3.2H21.462c-1.694 0-3.066-1.434-3.066-3.2l-2.555-16h29.383l-3.832 16zm-19.93 9.6c-1.694 0-3.066 1.432-3.066 3.2 0 1.766 1.372 3.2 3.066 3.2 1.694 0 3.066-1.434 3.066-3.2 0-1.768-1.372-3.2-3.066-3.2zm15.33 0c-1.694 0-3.066 1.432-3.066 3.2 0 1.766 1.373 3.2 3.066 3.2 1.694 0 3.066-1.434 3.066-3.2 0-1.768-1.372-3.2-3.066-3.2z" fill="#fff"/></svg>