<svg width="38" height="36" fill="none" xmlns="http://www.w3.org/2000/svg"><path d="M11.756 9.6L8.814 0H1.179C.53 0 0 .538 0 1.2c0 .662.528 1.2 1.18 1.2h5.895l2.37 7.2h-.011L11.793 24c0 2.65 2.112 4.8 4.716 4.8h12.972c2.605 0 4.717-2.15 4.717-4.8l3.538-14.4h-25.98zM31.84 24c0 1.325-1.057 2.4-2.359 2.4H16.51c-1.303 0-2.358-1.075-2.358-2.4l-1.966-12h22.603L31.84 24zm-15.33 7.2c-1.304 0-2.36 1.074-2.36 2.4 0 1.325 1.056 2.4 2.36 2.4 1.302 0 2.358-1.075 2.358-2.4 0-1.326-1.055-2.4-2.359-2.4zm11.792 0c-1.303 0-2.359 1.074-2.359 2.4 0 1.325 1.056 2.4 2.359 2.4s2.358-1.075 2.358-2.4c0-1.326-1.055-2.4-2.358-2.4z" fill="#fff"/></svg>