<svg width="151" height="30" fill="none" xmlns="http://www.w3.org/2000/svg"><path d="M33.03 3.208H18.97v23.586h14.06V3.208z" fill="#FF5F00"/><path d="M19.863 15a14.156 14.156 0 011.613-6.557A15.22 15.22 0 0126 3.207C23.63 1.467 20.783.386 17.785.086a17.08 17.08 0 00-8.738 1.422c-2.713 1.23-5 3.148-6.599 5.534C.848 9.428 0 12.185 0 15c0 2.815.848 5.572 2.448 7.958s3.886 4.303 6.599 5.534a17.077 17.077 0 008.738 1.422c2.998-.3 5.845-1.382 8.216-3.121a15.22 15.22 0 01-4.525-5.236A14.157 14.157 0 0119.863 15z" fill="#EB001B"/><path d="M52 15c0 2.814-.848 5.572-2.448 7.958s-3.886 4.303-6.598 5.534a17.076 17.076 0 01-8.738 1.422c-2.998-.3-5.845-1.382-8.216-3.121a15.246 15.246 0 004.522-5.238A14.184 14.184 0 0032.138 15c0-2.271-.553-4.513-1.616-6.555A15.246 15.246 0 0026 3.207c2.37-1.74 5.218-2.821 8.216-3.121a17.08 17.08 0 018.738 1.422c2.712 1.23 4.998 3.148 6.598 5.534C51.152 9.428 52 12.185 52 15zm-1.533 9.295v-.483h.209v-.098h-.532v.098h.209v.483h.114zm1.031 0v-.582h-.163l-.187.4-.187-.4h-.163v.582h.115v-.44l.176.38h.119l.175-.38v.44h.115z" fill="#F79E1B"/><g clip-path="url(#clip0_725:171)"><path d="M117.685 10.823c-.039 3.192 2.766 4.972 4.88 6.031 2.171 1.086 2.9 1.783 2.892 2.755-.016 1.486-1.732 2.142-3.338 2.168-2.801.044-4.43-.778-5.725-1.4l-1.009 4.855c1.299.616 3.705 1.152 6.199 1.176 5.856 0 9.687-2.972 9.708-7.58.023-5.847-7.867-6.17-7.814-8.784.019-.793.755-1.638 2.366-1.853.798-.109 3.001-.192 5.497.99l.98-4.697c-1.342-.503-3.068-.984-5.217-.984-5.511 0-9.388 3.012-9.419 7.323zm24.053-6.918c-1.069 0-1.97.64-2.372 1.625l-8.364 20.533h5.851l1.164-3.308h7.15l.676 3.308H151l-4.5-22.158h-4.762zm.819 5.985l1.689 8.321h-4.625l2.936-8.32zm-31.966-5.985l-4.612 22.158h5.575l4.61-22.159h-5.573zm-8.249 0l-5.803 15.081L94.19 6.163c-.275-1.432-1.363-2.258-2.571-2.258h-9.487L82 4.548c1.948.434 4.16 1.135 5.501 1.885.82.458 1.054.859 1.324 1.947l4.447 17.683h5.892l9.033-22.158h-5.855" fill="url(#paint0_linear_725:171)"/></g><defs><linearGradient id="paint0_linear_725:171" x1="113.722" y1="26.867" x2="114.404" y2="3.342" gradientUnits="userSpaceOnUse"><stop stop-color="#222357"/><stop offset="1" stop-color="#254AA5"/></linearGradient><clipPath id="clip0_725:171"><path fill="#fff" transform="translate(82 3.5)" d="M0 0h69v23H0z"/></clipPath></defs></svg>