<svg width="24" height="24" fill="none" xmlns="http://www.w3.org/2000/svg"><path d="M21.435 18.857a44.334 44.334 0 01-1.721-1.743c-.469-.476-.75-.822-.75-.822l-3.526-1.683a8.765 8.765 0 002.19-5.796C17.628 3.955 13.675 0 8.814 0 3.954 0 0 3.955 0 8.813c0 4.859 3.954 8.814 8.814 8.814a8.77 8.77 0 005.796-2.19l1.684 3.525s.346.283.822.75a44.297 44.297 0 011.743 1.722l1.71 1.753.76.813L24 21.33l-.813-.76c-.478-.47-1.115-1.091-1.752-1.713zm-12.62-3.748a6.303 6.303 0 01-6.297-6.296 6.303 6.303 0 016.296-6.295 6.303 6.303 0 016.296 6.295 6.303 6.303 0 01-6.296 6.296z" fill="#fff"/></svg>