<svg width="67" height="67" fill="none" xmlns="http://www.w3.org/2000/svg"><path d="M57.151 9.767C50.637 3.287 42.679 0 33.5 0 24.235 0 16.255 3.29 9.778 9.77 3.29 16.252 0 24.24 0 33.5c0 9.175 3.287 17.133 9.767 23.651C16.247 63.687 24.232 67 33.5 67c9.183 0 17.14-3.313 23.658-9.838C63.691 50.637 67 42.675 67 33.5c0-9.26-3.313-17.249-9.849-23.733zM51.895 51.9c-4.232 4.24-9.067 6.655-14.673 7.389V40.944h7.445V33.5h-7.445v-5.211a2.236 2.236 0 012.237-2.233h5.208V18.61h-5.2c-2.762 0-5.066 1.016-6.912 3.06-1.847 2.036-2.777 4.522-2.777 7.474V33.5h-7.445v7.444h7.445v18.351c-5.665-.726-10.52-3.145-14.73-7.385-5.116-5.15-7.603-11.174-7.603-18.41 0-7.318 2.483-13.355 7.601-18.462 5.1-5.11 11.137-7.594 18.455-7.594 7.24 0 13.259 2.487 18.406 7.605 5.148 5.107 7.65 11.144 7.65 18.451 0 7.225-2.505 13.247-7.66 18.399z" fill="#fff"/></svg>