<svg width="67" height="67" fill="none" xmlns="http://www.w3.org/2000/svg"><path d="M33.519 6.035c8.956 0 10.016.04 13.537.197 3.275.144 5.04.693 6.22 1.152 1.559.603 2.684 1.336 3.848 2.5 1.18 1.179 1.898 2.291 2.514 3.849.46 1.179 1.008 2.957 1.153 6.217.157 3.535.197 4.595.197 13.534 0 8.94-.04 10.012-.197 13.534-.145 3.273-.694 5.039-1.153 6.218-.603 1.558-1.334 2.682-2.5 3.847-1.18 1.178-2.293 1.897-3.85 2.512-1.179.459-2.96 1.008-6.22 1.152-3.535.157-4.595.197-13.539.197-8.943 0-10.016-.04-13.54-.197-3.274-.144-5.04-.693-6.219-1.152-1.559-.603-2.684-1.334-3.85-2.5-1.18-1.179-1.899-2.29-2.514-3.847-.46-1.179-1.008-2.959-1.153-6.217-.157-3.535-.197-4.594-.197-13.534 0-8.94.04-10.012.197-13.534.145-3.273.694-5.039 1.153-6.218.603-1.557 1.336-2.682 2.5-3.848 1.18-1.18 2.293-1.898 3.851-2.513 1.18-.459 2.958-1.008 6.22-1.152 3.522-.157 4.584-.197 13.54-.197h.002zm0-6.033c-9.1 0-10.238.04-13.814.197-3.561.157-6.01.733-8.13 1.558C9.361 2.62 7.489 3.759 5.63 5.63c-1.873 1.86-3.012 3.73-3.875 5.928C.93 13.693.354 16.127.196 19.686.04 23.274 0 24.411 0 33.507c0 9.097.04 10.234.197 13.809.157 3.56.733 6.008 1.559 8.127.865 2.211 2.002 4.083 3.875 5.94 1.858 1.858 3.731 3.012 5.93 3.862 2.136.825 4.57 1.401 8.131 1.558 3.574.157 4.714.197 13.814.197s10.24-.04 13.814-.197c3.562-.157 6.01-.733 8.13-1.558 2.2-.85 4.073-2.002 5.931-3.861 1.859-1.86 3.013-3.73 3.863-5.929.826-2.133 1.402-4.567 1.56-8.127.156-3.572.196-4.711.196-13.808s-.04-10.234-.197-13.809c-.157-3.56-.733-6.007-1.559-8.127-.825-2.226-1.965-4.096-3.835-5.955-1.859-1.858-3.731-3.011-5.931-3.862-2.135-.825-4.57-1.4-8.13-1.558C43.76.04 42.62 0 33.52 0l-.002.002z" fill="#fff"/><path d="M33.519 16.296c-9.505 0-17.218 7.708-17.218 17.211 0 9.503 7.711 17.212 17.218 17.212s17.218-7.709 17.218-17.212c0-9.5-7.711-17.21-17.218-17.21zm0 28.375c-6.168 0-11.168-4.999-11.168-11.164s5-11.163 11.168-11.163c6.167 0 11.168 4.998 11.168 11.163s-5 11.164-11.168 11.164zm21.917-29.055c0 2.22-1.8 4.018-4.02 4.018a4.019 4.019 0 110-8.037 4.02 4.02 0 014.02 4.019z" fill="#fff"/></svg>