<svg width="55" height="120" fill="none" xmlns="http://www.w3.org/2000/svg"><path d="M48.2 3.682v29.426c-6.363 2.173-12.322 5.612-17.55 10.251v-31.63c0-1.757-1.4-3.182-3.15-3.182s-3.15 1.425-3.15 3.182v31.632c-5.238-4.64-11.206-8.08-17.55-10.252V3.682C6.8 1.924 5.388.5 3.65.5 1.9.5.5 1.925.5 3.682v70.23h.375C2.751 86.497 12.313 96.375 24.35 97.853v18.465c0 1.757 1.4 3.182 3.15 3.182s3.15-1.425 3.15-3.182V97.865c12.037-1.48 21.6-11.368 23.475-23.942h.375V3.683C54.5 1.924 53.1.5 51.35.5S48.2 1.925 48.2 3.682zM24.328 76.29v15.127C14.818 89.853 7.368 81.3 6.789 70.738v-6.847c5.718 2.249 11.035 5.636 15.584 10.25a45.21 45.21 0 011.955 2.148zm.022-24.141V67.49A51.9 51.9 0 006.811 57.25V39.772c5.72 2.25 11.057 5.636 15.584 10.228a44.83 44.83 0 011.955 2.148zm8.266 22.005A44.506 44.506 0 0148.21 63.878v6.849c-.579 10.576-8.035 19.121-17.55 20.69V76.303a50.22 50.22 0 011.955-2.149zm15.595-34.38V57.25a51.747 51.747 0 00-17.55 10.24V52.161c.632-.73 1.28-1.456 1.955-2.15 4.537-4.602 9.874-7.99 15.595-10.239z" fill="#000" stroke="#000"/></svg>