<svg width="86" height="79" fill="none" xmlns="http://www.w3.org/2000/svg"><path d="M75.157 41.518L66.82 58.262 6.335 75.2 3 62.961c.247-.075 63.938-19.099 71.689-21.637.156.076.312.135.468.194z" stroke="#000" stroke-width="6" stroke-miterlimit="10" stroke-linecap="round" stroke-linejoin="round"/><path d="M74.634 41.571C66.889 44.111 3.247 63.138 3 63.213l25.498-50.032a5.76 5.76 0 008.514.232 5.766 5.766 0 005.067 3.428 5.687 5.687 0 003.118-.787 5.763 5.763 0 005.014 3.304 5.783 5.783 0 002.29-.383c.36 2.75 2.66 4.922 5.52 5.024a5.73 5.73 0 002.375-.42 5.792 5.792 0 006.3 4.339 5.79 5.79 0 004.8 6.802 5.798 5.798 0 003.139 6.851z" stroke="#000" stroke-width="6" stroke-miterlimit="10" stroke-linecap="round" stroke-linejoin="round"/><path d="M82.996 36.33c-.113 3.158-2.8 5.628-6 5.511a5.947 5.947 0 01-1.753-.33 4.964 4.964 0 01-.464-.192c-2.055-.937-3.453-3.024-3.367-5.399a5.5 5.5 0 01.222-1.373c-2.87-.431-5.024-2.928-4.916-5.862.011-.293.043-.575.097-.857a5.79 5.79 0 01-.906.037c-2.639-.096-4.802-1.912-5.417-4.324a5.924 5.924 0 01-2.385.416c-2.87-.102-5.174-2.242-5.541-4.963a5.79 5.79 0 01-2.299.378 5.809 5.809 0 01-5.034-3.263 5.877 5.877 0 01-3.129.777 5.797 5.797 0 01-5.088-3.386 5.831 5.831 0 01-4.376 1.74 5.808 5.808 0 01-4.17-1.97 5.662 5.662 0 01-1.414-3.955c.113-3.158 2.8-5.628 6-5.511a5.797 5.797 0 015.088 3.386 5.831 5.831 0 014.376-1.74 5.803 5.803 0 015.033 3.268 5.877 5.877 0 013.13-.777c2.87.101 5.174 2.242 5.541 4.962a5.795 5.795 0 012.299-.378c2.638.096 4.801 1.912 5.417 4.324a5.922 5.922 0 012.384-.416c3.2.112 5.703 2.764 5.585 5.921a5.648 5.648 0 01-.097.857 5.67 5.67 0 01.906-.037c3.2.112 5.703 2.763 5.584 5.92a5.5 5.5 0 01-.22 1.374c2.87.432 5.017 2.929 4.915 5.863z" stroke="#000" stroke-width="6" stroke-miterlimit="10" stroke-linecap="round" stroke-linejoin="round"/></svg>