<svg width="87" height="91" fill="none" xmlns="http://www.w3.org/2000/svg"><path d="M12.477 33.51v48.05c.252 1.78 2.262 5.492 8.294 6.102 6.032.61 33.679.254 46.748 0 2.765-.508 8.143-2.898 7.54-8.39-.603-5.492-.251-32.797 0-45.764M6.445 20.543c-3.016 4.576-6.484 12.356 3.77 6.864 2.011-2.288 7.691-5.491 14.326 0 6.636 5.492 13.824.255 16.588-3.05 2.765-.255 9.2.457 12.818 5.339 3.62 4.881 11.059-1.526 14.326-5.34 1.257-1.017 4.826-1.83 9.048 3.051 4.223 4.882 5.781 2.034 6.032 0v-6.864m-66.352-8.39H8.707V3h67.86v9.153H32.081" stroke="#000" stroke-width="6"/></svg>