<svg width="80" height="91" fill="none" xmlns="http://www.w3.org/2000/svg"><path d="M76.923 42.397h-3.077V3.569c0-.858-.324-1.681-.901-2.288a3.002 3.002 0 00-2.176-.948H9.231c-.816 0-1.599.341-2.176.948a3.322 3.322 0 00-.901 2.288v38.828H3.077c-.816 0-1.599.34-2.176.947A3.322 3.322 0 000 45.632v16.179c-.002.678.2 1.34.575 1.891a3.09 3.09 0 001.517 1.183l4.062 1.423v21.388c0 .858.324 1.681.901 2.288.577.607 1.36.948 2.176.948h61.538c.816 0 1.599-.341 2.176-.948.577-.607.901-1.43.901-2.288V67.7l2.462.517c.447.093.908.08 1.35-.037a3.024 3.024 0 001.204-.642c.353-.301.638-.68.835-1.112.196-.43.3-.902.303-1.38V45.632c0-.858-.324-1.68-.901-2.288a3.002 3.002 0 00-2.176-.947zm-33.846 0V32.69h24.615v9.707H43.077zM67.692 6.805v19.413H43.077V6.805h24.615zm-55.384 0h24.615v19.413H12.308V6.805zm0 25.885h24.615v9.707H12.308V32.69zm55.384 51.77H12.308V68.444l8.246 2.912c.32.1.65.155.985.162a2.94 2.94 0 001.076-.195L46.4 61.811l21.292 4.594V84.46zm6.154-23.36l-27.077-5.76a2.933 2.933 0 00-1.692 0l-23.538 9.513-15.385-5.37V48.867h67.692v12.23z" fill="#000"/></svg>