<svg width="14" height="29" fill="none" xmlns="http://www.w3.org/2000/svg"><path d="M11.5 1.614v6.602a11.787 11.787 0 00-3.6 2.068V3.455c0-.5-.395-.914-.9-.914s-.9.415-.9.914v6.83a11.85 11.85 0 00-3.6-2.07v-6.6c0-.5-.399-.914-.9-.914-.505 0-.9.414-.9.914V17.87h.112c.48 2.82 2.598 5.044 5.288 5.454v4.063c0 .5.395.914.9.914s.9-.414.9-.914v-4.06c2.69-.411 4.807-2.637 5.288-5.455h.112V1.614c0-.5-.395-.914-.9-.914s-.9.414-.9.914zM6.095 18.295v3.168c-1.952-.433-3.473-2.257-3.597-4.511v-1.284a9.922 9.922 0 013.207 2.196c.134.14.265.285.39.431zm.005-5.524v3.035a11.898 11.898 0 00-3.597-2.066v-3.59a9.92 9.92 0 013.207 2.19c.134.14.265.285.39.431zm2.193 5.096a9.878 9.878 0 013.21-2.202v1.284c-.125 2.258-1.647 4.08-3.6 4.514V18.3c.127-.148.256-.293.39-.432zm3.21-7.717v3.59a11.859 11.859 0 00-3.6 2.066v-3.031c.127-.148.256-.293.39-.432a9.925 9.925 0 013.21-2.193z" fill="#FFCA42" stroke="#FFCA42" stroke-width=".6"/></svg>