<svg width="140" height="78" fill="none" xmlns="http://www.w3.org/2000/svg"><path d="M13.431 12.212l4.67-6.034L16.064.814h1.445l1.557 4.358L22.468.814h1.573l-4.334 5.428 2.167 5.97h-1.509L18.728 7.28l-3.724 4.933h-1.573z" fill="#000"/><path d="M22.682 12.324a1.47 1.47 0 01-.385-.048 2.11 2.11 0 01-.273-.064V11c.15.064.326.096.53.096.342 0 .636-.112.882-.336.247-.223.482-.58.707-1.07.224-.489.47-1.133.738-1.93.246-.714.482-1.331.706-1.852.225-.522.476-.953.755-1.294a2.647 2.647 0 011.06-.782c.416-.17.935-.255 1.556-.255.364 0 .717.026 1.06.08.342.042.652.106.93.191l-1.797 8.365h-1.429l1.621-7.391a1.588 1.588 0 00-.273-.048 3.41 3.41 0 00-.337-.016c-.438 0-.797.107-1.075.32-.268.202-.514.553-.739 1.053-.224.5-.492 1.203-.802 2.107-.31.873-.61 1.618-.899 2.235-.278.607-.615 1.07-1.011 1.389-.385.309-.894.463-1.525.463zm12.664.048c-.996 0-1.766-.287-2.312-.862-.535-.586-.802-1.373-.802-2.363 0-.681.096-1.351.288-2.011a6.5 6.5 0 01.867-1.82 4.552 4.552 0 011.349-1.325 3.356 3.356 0 011.797-.495c.814 0 1.423.176 1.83.527.418.351.626.84.626 1.468 0 .554-.176 1.06-.53 1.517-.342.458-.882.825-1.62 1.102-.74.266-1.697.399-2.874.399h-.273l-.032.303v.287c0 .65.16 1.166.482 1.549.32.372.808.559 1.46.559.407 0 .792-.06 1.156-.176.364-.117.76-.277 1.188-.479v1.197c-.407.181-.808.33-1.204.447-.385.117-.85.176-1.396.176zm-1.333-4.997c.642 0 1.236-.053 1.782-.16.546-.117.984-.303 1.316-.558.332-.266.498-.617.498-1.054 0-.276-.097-.5-.29-.67-.181-.181-.47-.272-.866-.272-.514 0-1.011.24-1.493.719-.47.468-.824 1.133-1.06 1.995h.113zm9.31 4.997c-.973 0-1.728-.303-2.263-.91-.535-.617-.802-1.517-.802-2.698 0-.479.042-1.027.128-1.644.096-.628.24-1.267.433-1.916.204-.66.46-1.288.77-1.884a6.308 6.308 0 011.157-1.548A3.92 3.92 0 0144.35.846c.192-.064.47-.133.834-.207.375-.086.781-.17 1.22-.256.439-.096.856-.175 1.252-.24.396-.063.712-.111.947-.143l.16 1.15a37.767 37.767 0 00-2.584.479c-.47.095-.872.196-1.203.303-.685.212-1.268.638-1.75 1.277-.481.638-.861 1.463-1.14 2.474l.048.016c.29-.34.68-.665 1.172-.974.492-.308 1.054-.463 1.686-.463.813 0 1.417.256 1.813.767.407.5.61 1.202.61 2.107 0 .649-.08 1.287-.24 1.915a5.242 5.242 0 01-.723 1.676c-.32.5-.743.9-1.268 1.198-.513.298-1.134.447-1.862.447zm.129-1.165c.47 0 .867-.128 1.188-.384.32-.266.577-.601.77-1.005a5.1 5.1 0 00.433-1.293c.086-.458.129-.873.129-1.246 0-.638-.113-1.106-.337-1.404-.225-.298-.562-.447-1.011-.447-.397 0-.776.095-1.14.287-.353.192-.669.42-.947.686a5.13 5.13 0 00-.674.735l-.129.862a7.35 7.35 0 00-.048.814c0 .713.134 1.293.401 1.74.268.436.723.655 1.365.655zm5.215 1.005l1.83-8.556h1.396l-.738 3.56H55.2l.77-3.56h1.413l-1.814 8.556h-1.428l.802-3.831h-4.045l-.818 3.831h-1.413zm12.289.16c-.685 0-1.247-.245-1.686-.735-.428-.5-.642-1.229-.642-2.187 0-.798.102-1.553.305-2.266a6.629 6.629 0 01.883-1.9c.375-.553.819-.99 1.332-1.31a3.16 3.16 0 011.702-.478c.567 0 1.027.149 1.38.447.353.298.615.644.787 1.038h.08l.514-1.325h1.075l-1.83 8.556h-1.123l.208-1.58h-.064a6.11 6.11 0 01-1.284 1.229c-.492.34-1.038.51-1.637.51zm.465-1.165c.396 0 .781-.144 1.156-.432.385-.287.733-.675 1.043-1.165.31-.49.546-1.038.706-1.644.086-.309.14-.59.16-.846a6.01 6.01 0 00.05-.735c0-.5-.14-.91-.418-1.229-.278-.319-.653-.479-1.124-.479a1.88 1.88 0 00-1.155.4c-.354.255-.664.611-.931 1.069a5.835 5.835 0 00-.627 1.532 7.643 7.643 0 00-.208 1.804c0 .575.118 1.006.353 1.293.235.288.567.431.995.431zm5.897 1.101c-.14 0-.262-.01-.37-.032a3.128 3.128 0 01-.288-.064v-1.117c.117.032.251.048.4.048.28 0 .51-.09.691-.272.182-.191.39-.532.626-1.021a4.09 4.09 0 01.578-.91 2.11 2.11 0 01.883-.607c-.514-.149-.894-.4-1.14-.75a2.128 2.128 0 01-.353-1.214c0-.776.284-1.42.85-1.931.568-.522 1.419-.782 2.553-.782h3.274l-1.814 8.556h-1.396l.722-3.368h-1.043c-.503 0-.872.122-1.108.367-.235.245-.476.612-.722 1.101a8.236 8.236 0 01-.61 1.086 2.12 2.12 0 01-.69.687c-.267.148-.615.223-1.043.223zm4.06-4.661h1.413l.594-2.794h-1.862c-.567 0-1.006.138-1.316.415-.31.266-.465.633-.465 1.101 0 .48.155.815.465 1.006.321.181.712.272 1.172.272zm4.369 70.305a1.47 1.47 0 01-.385-.048 2.125 2.125 0 01-.273-.064v-1.213c.15.064.326.096.53.096.342 0 .636-.112.882-.335.247-.224.482-.58.707-1.07.224-.49.47-1.133.738-1.931.246-.713.482-1.33.706-1.852.225-.522.477-.953.755-1.293a2.648 2.648 0 011.06-.782c.416-.17.935-.256 1.556-.256.364 0 .717.027 1.06.08.342.042.652.106.93.191l-1.797 8.365h-1.429l1.621-7.39a1.591 1.591 0 00-.273-.049 3.42 3.42 0 00-.337-.016c-.438 0-.797.107-1.075.32-.268.202-.514.553-.738 1.053-.225.5-.493 1.203-.803 2.107-.31.873-.61 1.618-.899 2.235-.278.607-.615 1.07-1.011 1.39-.385.308-.894.462-1.525.462zm16.483.016c-1.005 0-1.77-.309-2.295-.926-.513-.617-.77-1.405-.77-2.362v-.384c.01-.127.016-.223.016-.287h-1.974l-.819 3.831h-1.412l1.83-8.556h1.396l-.738 3.56h1.91c.342-1.224.856-2.14 1.54-2.746.696-.617 1.488-.926 2.376-.926 1.017 0 1.782.309 2.295.926.514.617.77 1.41.77 2.379a7.59 7.59 0 01-.272 2.027 5.695 5.695 0 01-.786 1.756c-.343.521-.77.936-1.285 1.245-.513.309-1.107.463-1.781.463zm.097-1.165c.482 0 .915-.186 1.3-.559.396-.373.707-.894.931-1.564.236-.67.353-1.459.353-2.363 0-.596-.144-1.075-.433-1.437-.278-.362-.68-.542-1.204-.542-.45 0-.845.133-1.188.399-.331.255-.61.596-.834 1.021-.225.426-.39.9-.498 1.421a7.526 7.526 0 00-.16 1.549c0 .617.139 1.117.417 1.5.289.383.728.575 1.316.575zm8.67 1.197c-.974 0-1.728-.303-2.263-.91-.535-.617-.803-1.517-.803-2.698 0-.479.043-1.027.129-1.644.096-.628.24-1.267.433-1.916.203-.66.46-1.287.77-1.883a6.31 6.31 0 011.156-1.549c.46-.436.995-.745 1.605-.926.193-.064.471-.133.835-.207.374-.085.781-.17 1.22-.256a24.02 24.02 0 011.252-.24c.396-.063.711-.11.947-.143l.16 1.15a37.648 37.648 0 00-2.584.479c-.471.095-.872.196-1.204.303-.685.213-1.268.638-1.749 1.277-.482.638-.862 1.463-1.14 2.474l.048.016c.289-.34.68-.665 1.172-.974.492-.308 1.054-.462 1.685-.462.813 0 1.418.255 1.814.766.407.5.61 1.202.61 2.107 0 .65-.08 1.288-.241 1.916a5.24 5.24 0 01-.722 1.676c-.321.5-.744.899-1.268 1.197-.514.298-1.134.447-1.862.447zm.128-1.165c.471 0 .867-.128 1.188-.383a2.92 2.92 0 00.771-1.006 5.14 5.14 0 00.433-1.293 6.88 6.88 0 00.128-1.245c0-.639-.112-1.107-.337-1.405-.224-.298-.562-.447-1.011-.447-.396 0-.776.096-1.14.287a4.41 4.41 0 00-.947.687c-.278.255-.503.5-.674.734l-.128.862a7.35 7.35 0 00-.048.814c0 .713.133 1.293.4 1.74.268.436.723.655 1.365.655zm8.747 1.133c-.995 0-1.782-.293-2.36-.878-.567-.596-.85-1.4-.85-2.41 0-.66.091-1.315.273-1.964a6.19 6.19 0 01.802-1.772 4.275 4.275 0 011.348-1.277c.546-.33 1.172-.495 1.878-.495 1.006 0 1.793.298 2.36.894.567.585.851 1.389.851 2.41 0 .65-.091 1.299-.273 1.948a5.966 5.966 0 01-.819 1.772 4.278 4.278 0 01-1.332 1.293c-.535.32-1.161.48-1.878.48zm.08-1.165c.514 0 .979-.176 1.397-.527.417-.362.749-.878.995-1.548.257-.671.385-1.474.385-2.411 0-.32-.059-.628-.177-.926a1.542 1.542 0 00-.545-.75c-.257-.202-.6-.303-1.028-.303a2.2 2.2 0 00-1.54.606c-.429.394-.76.926-.996 1.596a6.48 6.48 0 00-.353 2.188c0 .66.161 1.17.482 1.532.331.362.792.543 1.38.543zM119.093 78c-1.177 0-2.039-.32-2.584-.958-.535-.649-.803-1.506-.803-2.57 0-1 .177-1.9.53-2.698.364-.809.883-1.447 1.557-1.915.685-.48 1.509-.719 2.472-.719.92 0 1.632.181 2.134.543.503.362.755.905.755 1.628 0 .628-.203 1.118-.61 1.469s-.926.596-1.557.734v.032c.471.117.856.314 1.156.59.299.267.449.677.449 1.23 0 .394-.112.798-.337 1.213-.214.405-.578.745-1.091 1.022-.514.266-1.204.399-2.071.399zm-.048-4.997a5.72 5.72 0 001.316-.143c.417-.096.749-.256.995-.48.257-.233.385-.542.385-.925 0-.32-.112-.59-.337-.814-.224-.224-.599-.336-1.123-.336-.749 0-1.386.235-1.91.703-.514.468-.872 1.133-1.076 1.995h1.75zm.144 3.848c.707 0 1.22-.15 1.541-.447.332-.309.498-.66.498-1.054 0-.404-.166-.708-.498-.91-.332-.202-.856-.303-1.573-.303h-2.022v.383c0 .82.187 1.415.561 1.788.375.362.873.543 1.493.543zM127.488 78c-.91 0-1.616-.202-2.119-.607-.503-.404-.754-1.027-.754-1.867 0-.213.016-.453.048-.719a33.3 33.3 0 01.128-.766l1.012-4.757h1.428l-.818 3.72c.278-.054.577-.096.898-.128.321-.043.653-.064.996-.064.973 0 1.669.213 2.086.638.418.426.626.969.626 1.629 0 .521-.134 1.005-.401 1.452-.257.437-.647.793-1.172 1.07-.513.266-1.166.399-1.958.399zm.128-1.15c.707 0 1.215-.164 1.525-.494.321-.33.482-.719.482-1.166 0-.383-.123-.68-.369-.894-.247-.223-.675-.335-1.284-.335-.332 0-.648.016-.948.048a6.346 6.346 0 00-.834.112c-.064.298-.113.553-.145.766a5.207 5.207 0 00-.032.527c0 .404.113.745.337 1.022.225.276.648.415 1.268.415zM54.107 24.746c-5.062-1.572-13.578 1.566-16.406 5.913-.336.526-.604 1.051-1.368 1.034-3.488-.101-6.584 1.267-9.508 2.867-2.65 1.453-5.473 2.826-6.994 5.726-1.004 1.911-.793 4.178.712 4.647 4.56 1.43 8.66 4.116 13.34 5.23 2.581.616 5.226 1.786 7.831 1.198a4.685 4.685 0 014.088.825c2.736 1.792 5.415 3.828 8.795 4.172.992.102 1.369.317 1.768 1.131.957 2.024 2.394 3.731 4.56 4.466 4.988 1.696 10.027 2.143 14.964-.198.9-.424 1.51-.17 2.28.198a17.615 17.615 0 0010.454 1.416 17.534 17.534 0 009.372-4.808 2.263 2.263 0 012.719-.633 7.065 7.065 0 006.271-.616c3.511-2.103 7.097-4.11 11.024-5.393 1.916-.735 3.859-1.397 5.735-2.216 1.989-.877 2.36-2.301 1.083-4.042a10.763 10.763 0 00-3.614-3.274c-1.99-1.051-3.99-2.103-5.968-3.171-.656-.35-1.437-.633-1.46-1.543-.068-2.426-1.875-3.585-3.648-4.523a36.824 36.824 0 00-10.039-3.488c-4.56-.978-6.219-2.024-10.004-4.523-7.895-5.24-16.69-6.405-25.908-4.709-2.491.464-5.13 1.199-6.619 3.358-1.083 1.583-1.938 1.43-3.46.956zM40.05 49.773a47.72 47.72 0 01-12.695-3.845c-1.231-.565-2.474-1.164-3.75-1.645-2.851-1.068-3.307-2.663-1.021-4.743a21.472 21.472 0 017.587-4.726c1.864-.622 3.905-2.001 5.7-1.312 2.03.792 1.14 3.477 1.876 5.224.735 1.747 1.39 3.539 2.08 5.314.52 1.329 1.05 2.651 1.546 3.986.176.486.763.95.393 1.486-.37.538-1.123.362-1.716.26zm12.655 4.375c-3.158-1.362-6.065-3.024-8.357-5.93-1.528-1.934-2.411-3.997-3.42-6.083-1.254-3.098-2.457-6.219-1.819-9.645a4.458 4.458 0 011.169-2.329c3.01-3.171 10.517-4.867 14.536-3.33.395.116.739.361.974.696.236.335.349.74.32 1.148.057 6.512 2.736 12.9 2.332 19.402-.211 3.278-1.71 7.812-5.735 6.071zm62.169-13.138c2.229 1.645 5.13 2.261 7.188 4.24 1.961 1.843 1.836 2.697-.655 3.748-1.386.565-2.799 1.08-4.202 1.617a53.908 53.908 0 00-9.81 4.522c-.987.6-2.029 1.106-3.112 1.51a3.157 3.157 0 01-1.817.172 3.14 3.14 0 01-1.604-.862c-.9-.95.171-1.764.513-2.566 1.329-3.11 2.6-6.253 4.561-9.046a11.125 11.125 0 012.799-2.94c1.915-1.288 3.859-2.091 6.139-.395zM98.799 31.1c3.893.814 7.724 1.814 11.121 3.957 2.195 1.396 2.246 2.6-.102 3.562-4.829 1.978-6.522 6.377-8.505 10.486a87.173 87.173 0 01-4.27 7.768c-2.371 3.867-12.923 6.784-17.198 4.229-.342-.21-.65-.464-1.015-.73.069-.379.029-.785.205-1.012 2.429-3.098 2.674-7.066 4.321-10.486 2.64-5.473 6.22-10.323 9.571-15.349 1.66-2.453 3.34-2.957 5.872-2.425zm-35.377-8.508c7.98-2.64 15.516-.69 22.99 1.956 2.325.825 3.87 2.826 5.267 4.715.958 1.305.416 2.826-.57 4.126-3.91 5.241-7.622 10.6-10.13 16.672a43.556 43.556 0 00-1.385 4.251c-.958 3.24-3.067 5.36-7.65 6.965A14.895 14.895 0 0160.72 59.62c-2.48-1.458-3.01-3.001-1.853-5.545 2.166-4.76 1.14-9.571.428-14.388a287.56 287.56 0 00-1.391-8.22c-.804-4.466 1.208-7.45 5.518-8.875z" fill="#000"/><path d="M71.18 25.21c4.435.067 12.541.191 14.44 5.115a.454.454 0 00.549.267.456.456 0 00.323-.515c-1.277-5.699-10.831-5.716-15.323-5.58a.36.36 0 00-.36.356.36.36 0 00.36.356h.011zm8.226 4.132c2.605.644 5.01 2.188 5.284 5.037a.44.44 0 00.442.39.446.446 0 00.442-.39c.313-3.392-3.107-5.23-5.963-5.806a.408.408 0 00-.467.292.399.399 0 00.262.482v-.005zm21.091 14.546a11.891 11.891 0 012.246-3.517c.918-.99 2.047-1.634 3.079-2.476.342-.283-.04-.854-.439-.724-2.736.877-4.771 3.839-5.735 6.372-.182.48.65.82.849.345zM42.724 31.072c-1.22 1.854-1.027 4.415.108 6.252.33.537 1.077.057.82-.492-.854-1.843-.712-3.55-.085-5.421.171-.515-.57-.752-.843-.34zm1.686 2.606c-.216 4.093.702 8.48 3.148 11.838a.434.434 0 00.77-.128.426.426 0 00-.03-.313c-1.846-3.715-2.97-7.225-2.85-11.409 0-.655-.986-.633-1.02 0l-.017.012zm-18.127 7.954a8.006 8.006 0 015.09-2.488.44.44 0 100-.882 7.559 7.559 0 00-3.158.756 7.497 7.497 0 00-2.541 2.009c-.36.424.245 1.023.627.605h-.018zm87.816 2.092a8.248 8.248 0 012.428 1.373c.65.537 1.089 1.255 1.71 1.804a.465.465 0 00.738-.165.45.45 0 00.02-.288c-.598-1.837-2.935-3.058-4.708-3.46a.384.384 0 00-.468.271.382.382 0 00.274.465h.006zm5.974-13.636c-.063-7.4 9.616-7.27 14.513-9.498 3.13-1.43 6.088-4.437 5.279-8.09a.491.491 0 00-.958.13c-.108 11.273-20.43 5.654-19.632 17.458a.398.398 0 00.681.28.393.393 0 00.117-.28zm1.887 6.072c3.123-4.076 8.391-4.857 12.951-2.918a.535.535 0 00.694-.204.524.524 0 00-.158-.7c-4.8-2.985-11.196-1.074-14.382 3.301-.394.566.501 1.035.895.52zM20.725 30.088C21.518 18.29 1.201 23.87 1.093 12.631c0-.531-.838-.678-.958-.13-.81 3.646 2.15 6.66 5.279 8.09 4.885 2.221 14.576 2.108 14.513 9.497a.4.4 0 00.798 0zm-1.789 5.506c-3.187-4.375-9.577-6.286-14.383-3.301a.526.526 0 00.536.904c4.56-1.939 9.828-1.159 12.946 2.917.399.515 1.294 0 .9-.52z" fill="#000"/></svg>