<svg width="97" height="54" fill="none" xmlns="http://www.w3.org/2000/svg"><path d="M9.306 8.455l3.236-4.178L11.13.564h1l1.08 3.017L15.566.564h1.09L13.654 4.32l1.502 4.134H14.11L12.976 5.04l-2.58 3.415h-1.09z" fill="#fff"/><path d="M15.715 8.532c-.096 0-.185-.011-.267-.033a1.461 1.461 0 01-.189-.044v-.84a.932.932 0 00.367.066.879.879 0 00.612-.232c.17-.155.334-.402.49-.74.155-.34.326-.785.511-1.338.17-.494.334-.92.49-1.282.155-.36.33-.66.522-.895.2-.243.445-.424.734-.542.29-.117.649-.176 1.079-.176.252 0 .497.018.734.055.237.03.452.074.645.132l-1.246 5.792h-.99l1.124-5.117a1.102 1.102 0 00-.19-.034 2.362 2.362 0 00-.233-.01c-.304 0-.552.073-.745.22-.185.14-.356.384-.512.73-.155.346-.34.832-.556 1.459-.215.604-.422 1.12-.622 1.547-.193.42-.427.74-.701.961-.267.214-.62.32-1.057.32zm8.775.033c-.69 0-1.224-.199-1.602-.597-.37-.405-.556-.95-.556-1.635 0-.472.067-.936.2-1.393.14-.464.341-.884.6-1.26a3.15 3.15 0 01.935-.917c.37-.228.786-.343 1.245-.343.564 0 .986.122 1.268.365.29.243.434.582.434 1.017 0 .383-.122.733-.367 1.05-.237.317-.612.57-1.123.762-.512.184-1.175.277-1.991.277h-.19a19.17 19.17 0 00-.021.21v.198c0 .45.11.807.333 1.073.223.257.56.386 1.012.386a2.6 2.6 0 00.801-.121c.252-.081.526-.192.823-.332v.83c-.282.124-.56.227-.834.309a3.36 3.36 0 01-.968.121zm-.924-3.46a6.46 6.46 0 001.235-.11c.378-.08.682-.21.912-.386a.889.889 0 00.345-.73.59.59 0 00-.2-.464c-.127-.125-.327-.188-.601-.188-.356 0-.7.166-1.035.497-.326.325-.57.785-.734 1.382h.078zm6.451 3.46c-.675 0-1.197-.21-1.568-.63-.37-.427-.556-1.05-.556-1.868 0-.331.03-.71.089-1.138.066-.435.166-.877.3-1.326.14-.457.319-.892.534-1.304.222-.413.49-.77.8-1.072.32-.302.69-.516 1.113-.641a5.41 5.41 0 01.578-.144c.26-.059.541-.118.845-.177.304-.066.593-.121.868-.166.274-.044.493-.077.656-.099l.111.796a26.194 26.194 0 00-1.79.332 7.99 7.99 0 00-.835.21c-.474.147-.878.441-1.212.883-.334.442-.597 1.013-.79 1.713l.034.011c.2-.235.47-.46.812-.674.34-.213.73-.32 1.168-.32.563 0 .982.177 1.256.53.282.347.423.833.423 1.46 0 .449-.056.89-.167 1.325-.104.428-.27.814-.5 1.16a2.487 2.487 0 01-.88.83c-.355.206-.785.31-1.29.31zm.089-.807c.326 0 .6-.088.823-.265.222-.184.4-.416.534-.696.14-.288.24-.586.3-.895.06-.317.089-.605.089-.862 0-.442-.078-.767-.234-.973-.155-.206-.389-.31-.7-.31a1.67 1.67 0 00-.79.2 3.043 3.043 0 00-.656.475 3.561 3.561 0 00-.467.508l-.09.597a5.07 5.07 0 00-.032.564c0 .493.092.895.277 1.204.186.302.501.453.946.453zm3.614.697l1.267-5.924h.968l-.512 2.464h2.803l.533-2.464h.98L38.5 8.455h-.99l.557-2.653h-2.803l-.567 2.653h-.979zm8.514.11a1.5 1.5 0 01-1.168-.508c-.297-.347-.445-.851-.445-1.514 0-.553.07-1.076.211-1.57.149-.5.352-.94.612-1.315.26-.383.567-.685.923-.906a2.19 2.19 0 011.179-.332c.393 0 .712.103.956.31.245.206.427.446.545.718h.056l.356-.917h.745l-1.268 5.924h-.779l.145-1.095h-.044a4.228 4.228 0 01-.89.851 1.95 1.95 0 01-1.134.354zm.322-.807c.274 0 .541-.1.8-.298a2.98 2.98 0 00.724-.807 4.04 4.04 0 00.489-1.138c.06-.214.096-.41.111-.586a4.12 4.12 0 00.034-.508c0-.347-.097-.63-.29-.851-.192-.221-.452-.332-.778-.332-.29 0-.556.092-.8.276-.245.177-.46.424-.646.74-.185.31-.33.664-.434 1.062a5.286 5.286 0 00-.144 1.249c0 .398.081.696.245.895.163.199.393.298.69.298zm4.086.762c-.097 0-.182-.006-.256-.021a2.165 2.165 0 01-.2-.044V7.68c.081.022.174.033.278.033a.65.65 0 00.478-.188c.126-.132.27-.368.434-.707.11-.236.244-.446.4-.63a1.47 1.47 0 01.612-.42c-.356-.103-.62-.276-.79-.52a1.472 1.472 0 01-.245-.84c0-.537.197-.983.59-1.337.393-.36.982-.541 1.768-.541h2.269l-1.257 5.924h-.968l.501-2.332h-.723c-.348 0-.604.084-.767.254-.163.17-.33.424-.5.762a5.784 5.784 0 01-.423.752 1.468 1.468 0 01-.479.475c-.185.103-.426.155-.722.155zm2.813-3.226h.979l.411-1.934h-1.29c-.393 0-.697.096-.912.287-.215.184-.322.438-.322.763 0 .331.107.563.322.696.223.125.493.188.812.188zm3.027 48.673c-.096 0-.185-.011-.267-.033a1.461 1.461 0 01-.19-.044v-.84a.93.93 0 00.368.066.88.88 0 00.612-.232c.17-.155.333-.402.489-.74.156-.34.326-.785.511-1.338.171-.494.334-.92.49-1.282.156-.361.33-.66.523-.895.2-.243.444-.424.733-.542.29-.118.65-.177 1.08-.177.251 0 .496.019.733.056.237.03.453.073.645.132l-1.245 5.791h-.99l1.123-5.117a1.098 1.098 0 00-.189-.033 2.353 2.353 0 00-.233-.01c-.304 0-.553.073-.745.22-.186.14-.356.384-.512.73a18 18 0 00-.556 1.459c-.215.604-.423 1.12-.623 1.547-.193.42-.426.74-.7.961-.267.214-.62.32-1.057.32zm11.421.011c-.697 0-1.227-.214-1.59-.641-.357-.427-.534-.973-.534-1.636v-.265a2.69 2.69 0 00.01-.199h-1.367l-.567 2.652h-.979l1.268-5.923h.967L60.6 50.43h1.323c.237-.847.593-1.48 1.068-1.9.482-.428 1.03-.642 1.646-.642.704 0 1.234.214 1.59.641.356.428.534.977.534 1.647 0 .479-.063.947-.19 1.404-.118.45-.3.854-.544 1.215a2.751 2.751 0 01-.89.862c-.356.214-.767.32-1.234.32zm.066-.807c.334 0 .634-.129.901-.387.275-.258.49-.619.645-1.083.163-.464.245-1.01.245-1.635 0-.413-.1-.745-.3-.995-.193-.25-.471-.376-.834-.376-.312 0-.586.092-.823.276-.23.177-.423.413-.579.708-.155.294-.27.622-.344.983a5.213 5.213 0 00-.112 1.072c0 .428.097.774.29 1.04.2.264.504.397.911.397zm6.007.829c-.674 0-1.197-.21-1.568-.63-.37-.427-.556-1.05-.556-1.868 0-.331.03-.71.09-1.138.066-.435.166-.877.3-1.326.14-.457.318-.892.533-1.304.223-.413.49-.77.801-1.072a2.72 2.72 0 011.112-.641c.134-.045.326-.093.578-.144.26-.059.542-.118.846-.177.304-.066.593-.121.867-.166.274-.044.493-.077.656-.1l.111.797a26.027 26.027 0 00-1.79.332 7.978 7.978 0 00-.834.21c-.475.146-.879.441-1.212.883-.334.442-.597 1.013-.79 1.713l.033.011c.2-.235.471-.46.812-.674a2.15 2.15 0 011.168-.32c.564 0 .982.176 1.257.53.281.347.422.833.422 1.459 0 .45-.055.892-.166 1.326a3.618 3.618 0 01-.501 1.16 2.487 2.487 0 01-.879.83c-.355.206-.785.309-1.29.309zm.09-.807c.326 0 .6-.088.822-.265.223-.184.4-.416.534-.696.141-.288.241-.586.3-.895.06-.317.09-.605.09-.863 0-.442-.078-.766-.234-.972-.156-.206-.39-.31-.7-.31a1.67 1.67 0 00-.79.2 3.046 3.046 0 00-.657.475 3.558 3.558 0 00-.467.508l-.089.597a5.072 5.072 0 00-.033.563c0 .494.093.896.278 1.205.185.302.5.453.945.453zm6.06.785c-.69 0-1.235-.203-1.635-.608-.393-.412-.59-.969-.59-1.669 0-.457.063-.91.19-1.36.125-.449.31-.858.555-1.226a2.96 2.96 0 01.935-.884 2.467 2.467 0 011.3-.343c.698 0 1.243.207 1.636.62.392.404.589.96.589 1.668 0 .45-.063.899-.19 1.348-.125.45-.314.859-.566 1.227a2.964 2.964 0 01-.923.895c-.371.221-.805.332-1.302.332zm.055-.807c.356 0 .678-.121.968-.365.289-.25.519-.607.69-1.072.177-.464.266-1.02.266-1.668 0-.222-.04-.435-.122-.641a1.07 1.07 0 00-.378-.52c-.178-.14-.416-.21-.712-.21-.408 0-.764.14-1.068.42-.296.273-.526.641-.69 1.105a4.476 4.476 0 00-.244 1.514c0 .457.111.81.334 1.061.23.25.548.376.956.376zm6.333.829c-.815 0-1.412-.221-1.79-.663-.37-.45-.556-1.043-.556-1.78 0-.692.122-1.315.367-1.867a3.145 3.145 0 011.079-1.326c.474-.332 1.045-.498 1.712-.498.638 0 1.13.126 1.48.376.348.25.522.626.522 1.127 0 .435-.14.774-.423 1.017-.281.243-.64.413-1.078.508v.023c.326.08.593.217.8.408.208.185.312.468.312.851 0 .273-.078.553-.234.84-.148.28-.4.516-.756.708-.356.184-.834.276-1.435.276zm-.033-3.46c.326 0 .63-.032.912-.099.29-.066.519-.177.69-.331a.826.826 0 00.266-.641.765.765 0 00-.233-.564c-.156-.155-.415-.232-.779-.232-.519 0-.96.162-1.323.486-.356.325-.604.785-.745 1.382h1.212zm.1 2.664c.49 0 .845-.103 1.068-.31.23-.213.344-.456.344-.729a.69.69 0 00-.344-.63c-.23-.14-.593-.21-1.09-.21h-1.401v.266c0 .567.13.98.389 1.237.26.251.604.376 1.034.376zM88.33 54c-.63 0-1.119-.14-1.467-.42-.349-.28-.523-.711-.523-1.293 0-.147.011-.313.034-.497.03-.192.059-.369.089-.53l.7-3.294h.99l-.567 2.575c.193-.037.4-.066.623-.089.222-.03.452-.044.69-.044.674 0 1.156.148 1.445.442.289.295.434.67.434 1.127a1.923 1.923 0 01-1.09 1.746c-.356.185-.808.277-1.357.277zm.09-.796c.49 0 .841-.114 1.056-.342.223-.229.334-.498.334-.807 0-.265-.085-.472-.256-.619-.17-.155-.467-.232-.89-.232-.23 0-.448.011-.656.033-.207.015-.4.04-.578.077a8.869 8.869 0 00-.1.53 3.48 3.48 0 00-.022.366c0 .28.078.515.233.707.156.191.449.287.879.287zM37.489 17.132c-3.508-1.088-9.408 1.084-11.367 4.093-.233.364-.419.728-.948.717-2.417-.07-4.562.876-6.588 1.984-1.837 1.006-3.792 1.957-4.846 3.965-.695 1.322-.55 2.892.493 3.217 3.16.99 6 2.849 9.242 3.62 1.79.426 3.622 1.237 5.427.83a3.247 3.247 0 012.832.571c1.896 1.24 3.752 2.65 6.094 2.888.688.07.948.22 1.225.783.663 1.401 1.659 2.583 3.16 3.092 3.455 1.174 6.947 1.483 10.367-.137.624-.293 1.047-.117 1.58.137a12.213 12.213 0 007.243.98 12.151 12.151 0 006.494-3.328 1.569 1.569 0 011.884-.438 4.899 4.899 0 004.344-.427c2.433-1.456 4.917-2.846 7.638-3.734 1.328-.509 2.674-.967 3.974-1.534 1.378-.607 1.635-1.593.75-2.798a7.452 7.452 0 00-2.504-2.267c-1.378-.727-2.764-1.455-4.135-2.195-.454-.243-.995-.439-1.011-1.069-.047-1.679-1.3-2.48-2.528-3.13a25.526 25.526 0 00-6.955-2.415c-3.16-.677-4.31-1.402-6.932-3.131-5.47-3.628-11.564-4.435-17.95-3.26-1.727.32-3.555.83-4.586 2.324-.75 1.096-1.343.99-2.397.662zm-9.74 17.326a33.083 33.083 0 01-8.796-2.661c-.853-.392-1.714-.807-2.599-1.14-1.974-.74-2.29-1.843-.707-3.283a14.878 14.878 0 015.257-3.272c1.292-.43 2.706-1.386 3.95-.908 1.406.548.79 2.407 1.3 3.616.509 1.21.963 2.45 1.44 3.68.36.919.728 1.835 1.071 2.759.123.336.53.657.273 1.029-.257.372-.778.25-1.19.18zm8.768 3.03c-2.188-.944-4.202-2.095-5.79-4.106-1.059-1.339-1.67-2.767-2.37-4.212-.869-2.144-1.702-4.305-1.26-6.677a3.085 3.085 0 01.81-1.612c2.085-2.196 7.287-3.37 10.071-2.305.274.08.512.25.675.481.163.232.242.513.222.795.04 4.508 1.896 8.93 1.615 13.432-.146 2.27-1.185 5.409-3.973 4.203zm43.074-9.096c1.545 1.138 3.555 1.565 4.98 2.935 1.36 1.276 1.273 1.867-.453 2.595-.96.391-1.94.747-2.911 1.119a37.362 37.362 0 00-6.798 3.131c-.683.415-1.406.765-2.156 1.045a2.187 2.187 0 01-2.37-.477c-.624-.658.119-1.221.356-1.777.92-2.153 1.8-4.329 3.16-6.262a7.715 7.715 0 011.939-2.035c1.327-.893 2.673-1.449 4.253-.274zM68.453 21.53c2.698.563 5.352 1.256 7.706 2.74 1.52.966 1.556 1.8-.071 2.465-3.345 1.37-4.518 4.415-5.893 7.26a60.327 60.327 0 01-2.958 5.378C65.594 42.05 58.283 44.07 55.32 42.3c-.237-.145-.45-.32-.703-.505.047-.262.02-.544.142-.7 1.683-2.145 1.852-4.893 2.994-7.26 1.829-3.789 4.309-7.147 6.631-10.626 1.15-1.699 2.315-2.047 4.068-1.68zm-24.51-5.89c5.529-1.828 10.75-.478 15.928 1.354 1.611.571 2.682 1.956 3.65 3.264.663.904.288 1.957-.396 2.857-2.709 3.628-5.28 7.338-7.018 11.541-.37.965-.69 1.947-.96 2.944-.663 2.242-2.125 3.71-5.3 4.821a10.328 10.328 0 01-7.777-1.146c-1.718-1.01-2.085-2.079-1.284-3.84 1.501-3.295.79-6.626.297-9.96-.289-1.902-.62-3.797-.964-5.69-.557-3.093.837-5.16 3.823-6.146z" fill="#fff"/><path d="M49.318 17.453c3.072.047 8.689.133 10.004 3.541a.314.314 0 00.38.185.315.315 0 00.224-.357c-.885-3.945-7.504-3.957-10.616-3.863a.25.25 0 00-.25.247.25.25 0 00.249.247h.009zm5.699 2.861c1.805.446 3.472 1.514 3.661 3.487a.304.304 0 00.306.27.31.31 0 00.306-.27c.218-2.349-2.152-3.62-4.13-4.02a.283.283 0 00-.324.203.276.276 0 00.18.333v-.003zm14.613 10.07a8.21 8.21 0 011.556-2.435c.636-.685 1.418-1.13 2.133-1.714.237-.196-.027-.591-.304-.5-1.896.606-3.306 2.657-3.973 4.41-.127.333.45.567.588.239zm-40.029-8.873c-.845 1.284-.71 3.057.075 4.329.23.372.747.039.57-.34-.593-1.277-.495-2.459-.06-3.754.118-.356-.395-.52-.585-.235zm1.169 1.804c-.15 2.834.486 5.871 2.18 8.196a.3.3 0 00.534-.089.295.295 0 00-.02-.216c-1.28-2.572-2.058-5.002-1.975-7.898 0-.454-.683-.439-.707 0l-.012.007zm-12.56 5.507a5.548 5.548 0 013.528-1.722.31.31 0 00.218-.09.304.304 0 00-.218-.52 5.24 5.24 0 00-2.19.523 5.195 5.195 0 00-1.76 1.39c-.249.294.17.709.434.419h-.011zm60.844 1.448c.612.22 1.18.541 1.683.951.45.372.754.869 1.184 1.249a.322.322 0 00.512-.114.314.314 0 00.014-.2c-.415-1.271-2.034-2.117-3.263-2.395a.268.268 0 00-.323.188.261.261 0 00.19.321h.003zm4.139-9.44c-.043-5.123 6.663-5.033 10.056-6.575 2.168-.99 4.218-3.072 3.657-5.6a.337.337 0 00-.37-.233.34.34 0 00-.293.322c-.075 7.804-14.156 3.914-13.603 12.086 0 .073.03.142.081.194a.278.278 0 00.472-.194zm1.307 4.204c2.165-2.822 5.814-3.362 8.974-2.02a.37.37 0 00.48-.141.361.361 0 00-.109-.485c-3.325-2.067-7.757-.744-9.965 2.285-.272.392.348.717.62.36zM14.36 20.83C14.909 12.662.832 16.525.757 8.744c0-.367-.58-.47-.663-.09-.561 2.525 1.489 4.61 3.657 5.601 3.385 1.538 10.1 1.46 10.056 6.575 0 .073.029.143.08.194a.278.278 0 00.473-.194zm-1.24 3.812c-2.208-3.03-6.636-4.352-9.965-2.285a.364.364 0 00.371.626c3.16-1.343 6.81-.803 8.97 2.02.276.355.896 0 .624-.36z" fill="#fff"/></svg>